<?xml version="1.0" encoding="utf-8"?>
<!-- Generator: Adobe Illustrator 16.0.4, SVG Export Plug-In . SVG Version: 6.00 Build 0)  -->
<!DOCTYPE svg PUBLIC "-//W3C//DTD SVG 1.1//EN" "http://www.w3.org/Graphics/SVG/1.1/DTD/svg11.dtd">
<svg version="1.1" id="Layer_1" xmlns="http://www.w3.org/2000/svg" xmlns:xlink="http://www.w3.org/1999/xlink" x="0px" y="0px"
	 width="473.822px" height="121.454px" viewBox="0 0 473.822 121.454" enable-background="new 0 0 473.822 121.454"
	 xml:space="preserve">
<g>
	<g>
		<polygon fill="#FFFFFF" points="163.342,59.119 157.942,59.119 157.042,59.119 133.336,120.847 139.617,120.847 		"/>
		<polygon fill="#FFFFFF" points="202.381,59.119 207.784,59.119 208.68,59.119 184.97,120.847 178.693,120.847 		"/>
		<polygon fill="#FFFFFF" points="179.699,59.119 185.098,59.119 185.998,59.119 162.287,120.847 156.005,120.847 		"/>
	</g>
	<g>
		<path fill="#FFFFFF" d="M360.3,59.073h6.046v61.817H360.3V59.073z"/>
	</g>
	<rect x="399.538" y="61.763" fill="#FFFFFF" width="6.284" height="59.128"/>
	<polygon fill="#FFFFFF" points="378.929,59.073 378.929,64.452 393.581,64.452 399.188,64.452 406.17,64.452 411.336,64.452 
		426.428,64.452 426.428,59.073 	"/>
	<path fill="#FFFFFF" d="M244.195,58.538c-17.372,0-31.456,14.084-31.456,31.457s14.084,31.459,31.456,31.459
		c17.374,0,31.459-14.086,31.459-31.459S261.569,58.538,244.195,58.538z M244.195,115.603c-14.141,0-25.606-11.466-25.606-25.607
		c0-14.14,11.465-25.606,25.606-25.606c14.144,0,25.608,11.467,25.608,25.606C269.804,104.137,258.339,115.603,244.195,115.603z"/>
	<g>
		<polygon fill="#FFFFFF" points="301.701,59.068 307.11,59.068 308.011,59.068 284.265,120.885 277.974,120.885 		"/>
		<polygon fill="#FFFFFF" points="340.69,59.068 346.101,59.068 346.999,59.068 323.255,120.885 316.966,120.885 		"/>
		<polygon fill="#FFFFFF" points="308.012,59.064 303.812,61.879 303.116,62.346 317.908,84.052 320.442,77.454 		"/>
		<polygon fill="#FFFFFF" points="306.695,96.847 304.34,102.986 316.935,120.9 321.831,117.618 		"/>
	</g>
	<path fill="#FFFFFF" d="M445.895,115.29c-1.794-0.629-3.307-1.314-4.495-2.037c-1.191-0.725-2.241-1.429-3.037-2.039
		c-1.763-1.355-3.082-2.489-3.095-2.499l-0.514-0.442l-2.169,5.494l0.249,0.225c2.437,2.194,5.241,3.998,8.334,5.362
		c3.104,1.369,6.844,2.062,11.116,2.062c3.378,0,6.438-0.498,9.097-1.477c2.663-0.984,4.938-2.338,6.764-4.021
		c1.834-1.688,3.254-3.716,4.221-6.021c0.967-2.302,1.457-4.82,1.457-7.485c0-2.486-0.51-4.64-1.513-6.395
		c-0.992-1.735-2.315-3.229-3.933-4.43c-1.595-1.187-3.427-2.191-5.448-2.989c-1.995-0.784-4.067-1.508-6.162-2.154
		c-2.09-0.643-4.129-1.283-6.116-1.926c-1.949-0.63-3.715-1.386-5.252-2.248c-1.507-0.846-2.735-1.876-3.656-3.064
		c-0.892-1.15-1.348-2.631-1.348-4.399c0-1.441,0.336-2.835,1.003-4.146c0.67-1.313,1.621-2.486,2.833-3.485
		c1.217-1.003,2.713-1.813,4.439-2.414c1.731-0.603,3.678-0.909,5.784-0.909c2.352,0,4.365,0.247,5.984,0.733
		c1.688,0.51,3.039,1.05,4.129,1.653c2.524,1.393,5.171,3.834,5.194,3.86l0.507,0.468l2.196-5.268l-0.246-0.229
		c-2.408-2.215-5.09-3.885-7.973-4.962c-2.874-1.076-6.21-1.623-9.913-1.623c-3.098,0-5.934,0.456-8.429,1.356
		c-2.496,0.899-4.647,2.129-6.398,3.65c-1.75,1.525-3.121,3.325-4.071,5.348c-0.95,2.025-1.434,4.166-1.434,6.358
		c0,2.569,0.512,4.75,1.513,6.486c0.994,1.716,2.316,3.196,3.931,4.399c1.598,1.187,3.436,2.184,5.455,2.959
		c1.994,0.766,4.076,1.481,6.187,2.123c2.105,0.642,4.174,1.29,6.147,1.928c1.949,0.631,3.714,1.408,5.244,2.309
		c1.504,0.888,2.732,1.98,3.656,3.248c0.898,1.237,1.355,2.829,1.355,4.727c0,1.737-0.321,3.414-0.961,4.976
		c-0.633,1.559-1.58,2.933-2.81,4.086c-1.235,1.158-2.803,2.088-4.663,2.766c-1.866,0.68-4.062,1.024-6.531,1.024
		C449.893,116.229,447.664,115.912,445.895,115.29"/>
	<g>
		<polygon fill="#065D9E" points="68.768,74.75 80.627,62.205 85.768,83.585 77.217,92.494 		"/>
		<rect x="80.313" y="117.776" fill="#065D9E" width="10.91" height="3.48"/>
		<rect x="46.499" y="117.776" fill="#065D9E" width="10.913" height="3.48"/>
		<rect x="11.802" y="117.787" fill="#065D9E" width="10.91" height="3.48"/>
		<polygon fill="#065D9E" points="49.587,83.717 58.383,99.143 46.499,99.688 34.208,88.592 35.217,83.717 		"/>
		<polygon fill="#6ACCF4" points="26.513,65.096 14.235,99.143 20.804,121.268 22.711,121.268 22.719,99.143 42.108,83.717 
			73.02,83.604 83.004,59.419 105.486,59.394 105.494,52.97 93.776,45.401 93.795,42.841 80.887,36.183 64.674,44.408 
			63.192,42.841 42.255,42.318 39.427,27.911 34.792,28.217 36.614,46.981 50.623,53.216 		"/>
		<polyline fill="#065D9E" points="37.673,20.575 33.671,20.19 32.146,24.737 34.9,30.63 38.419,21.531 		"/>
		<polygon fill="#065D9E" points="64.674,44.408 73.974,56.637 68.544,42.442 		"/>
		<path fill="none" stroke="#4787C7" stroke-width="11.8862" stroke-miterlimit="10" d="M83.004,59.419"/>
		<polygon fill="#94D8EE" points="68.768,69.232 50.623,53.216 63.192,42.841 81.076,64.069 		"/>
		<polygon fill="#CDECF9" points="68.768,69.232 33.671,60.178 50.623,53.216 		"/>
		<polygon fill="#94D8EE" points="56.159,65.979 42.108,83.717 22.719,99.143 12.257,99.143 25.326,64.882 33.671,60.178 		"/>
		<polygon fill="#CDECF9" points="42.255,42.318 36.614,46.981 50.623,53.216 63.192,42.841 		"/>
		<polygon fill="#94D8EE" points="92.875,121.257 84.03,121.257 85.539,109.91 92.875,109.072 		"/>
		<polygon fill="#065D9E" points="93.795,42.841 88.195,42.841 87.286,44.935 93.776,45.401 		"/>
		<path fill="#94D8EE" d="M87.286,44.935c0,0,11.195,10.863,11.299,10.703c0.111-0.16,6.909-2.668,6.909-2.668l-11.718-7.569
			L87.286,44.935z"/>
		<polygon fill="#CDECF9" points="98.585,55.638 98.105,59.401 83.004,59.419 87.286,44.935 		"/>
		<polygon fill="#CDECF9" points="87.286,44.935 68.544,42.442 80.887,36.183 93.795,42.841 88.025,43.443 		"/>
		<polygon fill="#4FA9DD" points="85.768,83.585 77.217,92.494 85.539,109.91 92.875,109.072 		"/>
		<polygon fill="#4FA9DD" points="58.383,99.143 46.499,99.688 46.499,121.257 50.133,117.776 		"/>
		<polygon fill="#4FA9DD" points="22.719,99.143 12.257,99.143 20.804,121.268 22.711,121.268 		"/>
		<polygon fill="#CDECF9" points="3.843,121.228 0,121.238 42.73,9.03 40.442,3.825 41.372,0.258 43.237,0 46.702,8.827 		"/>
		<polygon fill="#4FA9DD" points="81.076,64.069 68.768,69.232 73.02,83.604 		"/>
	</g>
</g>
</svg>
